# Rhino

mtllib contexttest2.mtl
o object_1
usemtl diffuse_0_0_0_255
v -0.5 1.5 0
v 1.5 1.5 0
v -0.5 0.5 0
v 1.5 0.5 0
v -0.5 0.5 -1
v 1.5 0.5 -1
v -0.5 1.5 -1
v 1.5 1.5 -1
vt 0 0
vt 0 0.74999946356
vt 0.25 0
vt 0.25 0.74999946356
vt 0.25 0
vt 0.25 0.74999946356
vt 0.5 0
vt 0.5 0.74999946356
vt 0.5 0
vt 0.5 0.74999946356
vt 0.75 0
vt 0.75 0.74999946356
vt 0.75 0
vt 0.75 0.74999946356
vt 1 0
vt 1 0.74999946356
vt 0 1
vt 0.25 1
vt 0.25 0.75000017881
vt 0 0.75000017881
vt 0.75 0.75000017881
vt 1 0.75000017881
vt 1 1
vt 0.75 1
vn 0 0 1
vn 0 0 1
vn 0 0 1
vn 0 0 1
vn 0 -1 0
vn 0 -1 0
vn 0 -1 0
vn 0 -1 0
vn 0 0 -1
vn 0 0 -1
vn 0 0 -1
vn 0 0 -1
vn 0 1 0
vn 0 1 0
vn 0 1 0
vn 0 1 0
vn -1 0 0
vn -1 0 0
vn -1 0 0
vn -1 0 0
vn 1 0 0
vn 1 0 0
vn 1 0 0
vn 1 0 0
f 1/1/1 3/3/3 4/4/4 2/2/2
f 3/5/5 5/7/7 6/8/8 4/6/6
f 5/9/9 7/11/11 8/12/12 6/10/10
f 7/13/13 1/15/15 2/16/16 8/14/14
f 3/18/18 1/17/17 7/20/20
f 7/20/20 5/19/19 3/18/18
f 4/22/22 8/24/24 2/21/21
f 8/24/24 4/22/22 6/23/23
