# Rhino

v -3.384952068328857 0.05000000074505806 0.7948845624923706
v -3.384952068328857 0.05000000074505806 0.7648845314979553
v -3.384952068328857 2.349999904632568 0.7948845624923706
v -3.384952068328857 2.349999904632568 0.7648845314979553
v -3.384952068328857 2.349999904632568 0.7948845624923706
v -3.384952068328857 2.349999904632568 0.7648845314979553
v -2.584952116012573 2.349999904632568 0.7948845624923706
v -2.584952116012573 2.349999904632568 0.7648845314979553
v -2.584952116012573 2.349999904632568 0.7948845624923706
v -2.584952116012573 2.349999904632568 0.7648845314979553
v -2.584952116012573 0.05000000074505806 0.7948845624923706
v -2.584952116012573 0.05000000074505806 0.7648845314979553
v -2.584952116012573 0.05000000074505806 0.7948845624923706
v -2.584952116012573 0.05000000074505806 0.7648845314979553
v -3.384952068328857 0.05000000074505806 0.7948845624923706
v -3.384952068328857 0.05000000074505806 0.7648845314979553
v -3.384952068328857 0.05000000074505806 0.7948845624923706
v -3.384952068328857 2.349999904632568 0.7948845624923706
v -2.584952116012573 2.349999904632568 0.7948845624923706
v -2.584952116012573 0.05000000074505806 0.7948845624923706
v -3.384952068328857 0.05000000074505806 0.7648845314979553
v -3.384952068328857 2.349999904632568 0.7648845314979553
v -2.584952116012573 2.349999904632568 0.7648845314979553
v -2.584952116012573 0.05000000074505806 0.7648845314979553
vt 0 0
vt 0 0.5092021822929382
vt 0.3400000035762787 0
vt 0.3400000035762787 0.5092021822929382
vt 0.3400000035762787 0
vt 0.3400000035762787 0.5092021822929382
vt 0.5 0
vt 0.5 0.5092021822929382
vt 0.5 0
vt 0.5 0.5092021822929382
vt 0.8399999737739563 0
vt 0.8399999737739563 0.5092021822929382
vt 0.8399999737739563 0
vt 0.8399999737739563 0.5092021822929382
vt 1 0
vt 1 0.5092021822929382
vt 0.3709677457809448 0.5092027187347412
vt 0 0.5092027187347412
vt 0 1
vt 0.3709677457809448 1
vt 1 1
vt 0.6290322542190552 1
vt 0.6290322542190552 0.5092027187347412
vt 1 0.5092027187347412
vn -1 -1.930822588224712e-16 0
vn -1 -1.930822588224712e-16 0
vn -1 -1.930822588224712e-16 0
vn -1 -1.930822588224712e-16 0
vn 0 1 0
vn 0 1 0
vn 0 1 0
vn 0 1 0
vn 1 1.930822588224712e-16 0
vn 1 1.930822588224712e-16 0
vn 1 1.930822588224712e-16 0
vn 1 1.930822588224712e-16 0
vn -1.387778780781446e-16 -1 0
vn -1.387778780781446e-16 -1 0
vn -1.387778780781446e-16 -1 0
vn -1.387778780781446e-16 -1 0
vn 0 0 1
vn 0 0 1
vn 0 0 1
vn 0 0 1
vn 0 0 -1
vn 0 0 -1
vn 0 0 -1
vn 0 0 -1
f 1/1/1 3/3/3 4/4/4 2/2/2
f 5/5/5 7/7/7 8/8/8 6/6/6
f 9/9/9 11/11/11 12/12/12 10/10/10
f 13/13/13 15/15/15 16/16/16 14/14/14
f 17/17/17 20/20/20 19/19/19
f 19/19/19 18/18/18 17/17/17
f 21/21/21 23/23/23 24/24/24
f 23/23/23 21/21/21 22/22/22
