<?xml version="1.0" encoding="utf-8"?>
<!-- Generator: Adobe Illustrator 21.0.0, SVG Export Plug-In . SVG Version: 6.00 Build 0)  -->
<svg version="1.1" id="Laag_1" xmlns="http://www.w3.org/2000/svg" xmlns:xlink="http://www.w3.org/1999/xlink" x="0px" y="0px"
	 viewBox="0 0 176.2 107.7" style="enable-background:new 0 0 176.2 107.7;" xml:space="preserve">
<style type="text/css">
	.st0{fill:#DA291C;}
	.st1{fill:#FFFFFF;}
</style>
<rect class="st0" width="34.5" height="107.7"/>
<rect x="47.3" class="st0" width="34.5" height="107.7"/>
<rect x="94.3" class="st0" width="34.5" height="107.7"/>
<rect x="141.7" class="st0" width="34.5" height="107.7"/>
<path class="st1" d="M23.9,82.7l-1.7-5H12.1l-1.7,5H4.6l10.4-28.5h4.4l10.4,28.5H23.9z M17.3,62.6l-3.6,10.4h7.1L17.3,62.6z"/>
<path class="st1" d="M66.6,82.7h-4.2l-9.4-28.5h5.8l5.7,18.6l5.7-18.6h5.8L66.6,82.7z"/>
<path class="st1" d="M102.2,82.7V54.2H121v5h-13.2v6.7h11.2v5h-11.2v6.9H121v5H102.2z"/>
<path class="st1" d="M164.2,82.7l-5.5-9.9l-5.5,9.9h-6.4l8.8-14.6l-8.3-13.9h6.3l5,9.2l5-9.2h6.3l-8.3,13.9l8.9,14.6H164.2z"/>
</svg>
