<?xml version="1.0"?><svg width="1600" height="1200" xmlns="http://www.w3.org/2000/svg">
 <title>Free Vector Person</title>

 <metadata id="metadata7">image/svg+xml</metadata>
 <g>
  <title>Layer 1</title>
  <g id="layer1">
   <path d="m280.673584,1211.160767zm667.814148,-109.402588c-6.011108,-2.091064 -7.373779,-2.289795 -13.879395,-2.028442c-4.52832,0.182495 -7.579346,-0.02063 -8.196167,-0.544434c-0.540161,-0.458862 -1.18103,-2.734497 -1.422852,-5.055908c-0.868408,-8.331665 -1.733398,-13.325317 -2.442749,-14.100586c-0.415405,-0.45459 -0.720825,-4.78894 -0.720825,-10.229492l0,-9.440186l-2.439941,0c-3.893799,0 -4.662109,-2.06311 -5.069824,-13.61145c-0.283447,-8.037842 -0.722168,-11.107056 -2.442383,-17.088623c-2.485718,-8.645874 -2.629395,-12.22583 -0.68042,-16.917603c0.796387,-1.918091 1.64563,-4.853271 1.887451,-6.524292c0.428955,-2.961792 0.306152,-3.189941 -4.941284,-9.177368l-5.381226,-6.140259l0.42749,-12.663818c0.234741,-6.9646 0.705322,-14.770264 1.045776,-17.344482c0.413696,-3.133545 0.340332,-6.470947 -0.222656,-10.094849c-0.696533,-4.486694 -1.285278,-5.952148 -3.439575,-8.560669c-1.42981,-1.730957 -2.621826,-3.232666 -2.649658,-3.337036c-0.055664,-0.212524 -0.566284,-5.227173 -2.654541,-26.090332c-0.79248,-7.91272 -1.615601,-15.511353 -1.829346,-16.88501c-0.213989,-1.373291 -0.688232,-6.768188 -1.053467,-11.988525c-0.635254,-9.073486 -0.785522,-9.715576 -3.412964,-14.58252c-3.771729,-6.987183 -3.337158,-4.727539 -5.335205,-27.732666c-0.572266,-6.591064 -2.437134,-19.427124 -4.181885,-28.781616c-3.499023,-18.75708 -4.370239,-24.787598 -7.766479,-53.725586c-1.821411,-15.518921 -3.048584,-22.855713 -5.520386,-33.002563c-3.507935,-14.401123 -10.989136,-48.613403 -11.006226,-50.332275c-0.020508,-2.062378 -1.202026,-3.370239 -2.216187,-2.452759c-1.155151,1.04541 -0.411255,32.87146 1.216309,52.017456c2.978149,35.019897 3.774414,45.920776 4.459595,61.01709c1.279175,28.193481 2.211182,43.241821 2.876221,46.43396c0.351563,1.687866 2.197632,9.286621 4.102539,16.88501c2.567871,10.243164 3.748413,16.727661 4.56665,25.078735c0.606934,6.195068 2.250366,19.491943 3.651489,29.548706c2.443604,17.535645 2.532959,18.884155 2.172241,32.868408l-0.376099,14.582642l2.833008,9.594116l2.832275,9.59375l-0.292603,11.89624c-0.252075,10.255615 -0.499146,12.330566 -1.788818,15.045044c-0.822876,1.731201 -1.370728,3.803711 -1.217651,4.604492c0.153442,0.801514 0.788208,3.814819 1.411499,6.697144c0.993164,4.595703 1.041626,7.475464 0.394775,23.409302c-0.405396,9.992676 -0.532593,19.005981 -0.283447,20.029663c0.366577,1.501953 -0.031738,2.316406 -2.063232,4.221069l-2.51709,2.360107l-1.053467,14.728027c-0.81311,11.373901 -1.382324,15.54248 -2.499756,18.30542l-1.446655,3.577759l-9.138306,-0.269409c-8.092041,-0.237793 -9.18103,-0.120361 -9.51355,1.026978c-0.206909,0.712891 -1.476685,2.353516 -2.822266,3.645752l-2.446899,2.349976l-18.457886,0c-10.1521,0 -22.80603,-0.228271 -28.120117,-0.506958l-9.661865,-0.506836l-1.343262,-2.371582c-1.119629,-1.976563 -1.266235,-3.201416 -0.88269,-7.360107c0.70752,-7.67334 3.341064,-12.63269 9.890869,-18.626465c6.108276,-5.590332 15.715576,-16.198975 16.910156,-18.673584c0.484131,-1.003174 0.620483,-3.661011 0.361328,-7.042847c-0.364624,-4.75769 -0.606812,-5.484375 -1.952637,-5.853638c-4.599243,-1.262695 -5.685181,-16.715576 -2.739136,-38.969604l1.084595,-8.193726l-2.783447,-5.237427c-1.53064,-2.880615 -4.298706,-9.900024 -6.150757,-15.598633l-3.367676,-10.361572l0.162842,-12.700317l0.163208,-12.700073l-3.629883,-13.778931c-3.455444,-13.119385 -3.633301,-14.237183 -3.712891,-23.372314c-0.062622,-7.206299 0.219849,-10.631348 1.136475,-13.762695c2.037842,-6.96167 1.674438,-10.057007 -1.876099,-15.987305l-3.096069,-5.171997l-1.83313,-14.582275c-1.007935,-8.020142 -2.45874,-19.417969 -3.223511,-25.327881c-0.765381,-5.909912 -2.012939,-16.96167 -2.772827,-24.560059c-0.759521,-7.598633 -2.186035,-18.462402 -3.170166,-24.142822c-2.552368,-14.737061 -8.696777,-42.148315 -10.157715,-45.31665c-0.681519,-1.477173 -2.734253,-10.457153 -4.56189,-19.955322c-3.158569,-16.410034 -6.600586,-33.055176 -8.134399,-39.334717c-0.571655,-2.340576 -1.026367,-2.878052 -2.434814,-2.878052c-0.952271,0 -2.328491,0.7771 -3.058472,1.726685c-0.729614,0.949951 -2.069336,2.691162 -2.977173,3.868896c-1.319214,1.712036 -2.325684,2.183838 -5.012695,2.349365c-2.562744,0.157959 -3.813354,0.700928 -5.262451,2.283447c-6.177124,6.749756 -7.785278,7.75293 -12.935425,8.071411c-3.248535,0.200562 -6.419434,-0.14563 -9.392944,-1.026123c-4.105713,-1.215698 -4.91748,-1.830078 -9.504761,-7.190796c-7.924561,-9.26123 -7.598755,-8.193726 -7.602051,-24.92627c-0.002441,-13.510742 -0.094482,-14.543213 -1.402832,-15.733887c-1.379761,-1.255493 -1.402954,-2.375854 -1.568481,-75.338501c-0.190918,-84.101532 -0.030151,-88.223083 5.855469,-150.431702c0.778931,-8.231445 2.00769,-23.255432 2.730835,-33.386536c0.7229,-10.131104 1.786499,-23.428223 2.362671,-29.549011c0.57666,-6.121063 1.228149,-13.719269 1.448364,-16.885376c2.602051,-37.463135 3.263428,-41.910919 7.084839,-47.660156c2.879028,-4.330719 17.827148,-18.900055 24.000488,-23.39212c3.180176,-2.314148 10.923706,-7.59288 17.207397,-11.730377c17.097412,-11.257736 21.42041,-14.533707 26.971924,-20.439392l5.057129,-5.380081l-0.595459,-8.369598l-0.595337,-8.36972l-3.508545,-3.526657c-4.287964,-4.310272 -6.266357,-7.891571 -6.843994,-12.388626c-0.517456,-4.028748 -1.172363,-6.104523 -4.314575,-13.666321c-4.577637,-11.018967 -5.892822,-18.052277 -6.527588,-34.912552c-0.832031,-22.11132 0.515503,-29.168205 7.323364,-38.339691c1.631226,-2.197464 3.168335,-4.858826 3.415894,-5.9142c0.836304,-3.563118 3.099121,-6.629608 9.593262,-12.998825c7.670166,-7.522682 11.276611,-9.439835 20.908813,-11.115021c6.507324,-1.131668 8.044434,-1.137848 17.154663,-0.069229c13.534058,1.587708 16.406128,2.591278 20.348389,7.110359c1.747559,2.002548 4.006226,4.264381 5.019653,5.026268c1.013794,0.761627 4.738525,5.596992 8.278198,10.745003c3.539673,5.148178 6.69519,9.554199 7.012329,9.79129c1.502808,1.12294 4.078857,5.81636 4.078857,7.431198c0,0.994286 0.524902,2.913231 1.166138,4.263962c0.641235,1.351036 1.914917,6.56929 2.829956,11.595863c1.614014,8.863708 1.630371,9.321243 0.542358,15.156525c-1.343994,7.207382 -5.312988,20.37471 -6.980835,23.159256c-0.84021,1.403091 -1.313354,4.327988 -1.591064,9.844543c-0.388184,7.715225 -0.438965,7.901596 -2.970093,10.963348c-4.045898,4.894562 -4.924316,6.684814 -4.924316,10.033554c0,2.672882 0.430054,3.573471 2.981934,6.246017c8.75,9.163818 14.300293,12.114655 41.864746,22.261078c25.886719,9.528778 53.481812,20.697815 56.375122,22.817551c4.064209,2.978104 6.543091,8.037598 7.822144,15.968109c2.703613,16.761017 4.469971,23.615662 14.132813,54.835815c15.419189,49.81897 19.733887,64.876526 20.594849,71.866882c0.427856,3.472229 1.410034,15.810852 2.18396,27.419525c0.773193,11.608429 1.574463,22.317993 1.781128,23.798798c0.616211,4.421539 -1.013916,40.103607 -2.453979,53.719299c-0.73645,6.965302 -1.851807,18.017151 -2.478027,24.560303c-2.836548,29.635132 -9.497681,83.151855 -10.484741,84.231445c-0.213257,0.232422 -1.103027,0.831421 -1.977905,1.330811c-0.875732,0.49939 -1.526978,1.263184 -1.448242,1.697754c0.285156,1.577271 -1.231323,15.266357 -1.960571,17.699585c-0.507324,1.69104 -1.726318,3.12439 -3.776245,4.438477c-3.143433,2.014893 -9.491455,8.902344 -9.491455,10.297974c0,0.438843 -1.094971,2.124146 -2.433594,3.745117c-1.703369,2.061646 -4.337769,3.838623 -8.770874,5.915771l-6.336304,2.96875l0.001831,13.466064c0.004883,42.170166 4.328613,104.437988 9.836548,141.669678c3.367432,22.760864 3.578979,23.74646 6.233887,29.034302c2.547119,5.07373 7.010742,19.711914 10.537964,34.561035c2.781738,11.708252 3.718994,29.769775 3.867676,74.526123c0.115723,35.027832 0.328491,42.859619 1.371582,50.577759c0.679077,5.022705 1.778809,17.247559 2.444336,27.165527l1.210083,18.032959l-3.017822,1.459961c-2.821289,1.365479 -3.017456,1.657227 -3.017456,4.492432c0,2.801147 0.494751,3.574097 6.490356,10.133789c5.268066,5.764526 7.253174,8.632568 10.543823,15.235718c3.970337,7.966309 5.95874,15.273804 5.02771,18.480103c-0.59082,2.038452 -4.925537,4.40918 -11.828125,6.469482c-5.551514,1.65686 -8.233154,1.945923 -20.758179,2.238525l-14.383667,0.335938l-6.665649,-2.318359z" id="path2689" fill="#000000"/>
  </g>
 </g>
</svg>